<svg id="Layer_1" data-name="Layer 1" xmlns="http://www.w3.org/2000/svg" viewBox="0 0 2482 548"><defs><style>.cls-1{stroke:#000;stroke-miterlimit:10;stroke-width:2px;}</style></defs><path d="M657.58,428.13,641.26,272.31,540,433.85,438.2,272.31,421.88,428.13H354.71L392.59,79.85,540,314.32,687.35,79.85l37.88,348.28Z"/><path d="M327,149.36V88.25H125v339.5H327V366.16H192.87v-81H317V223.57H192.87V149.36Z"/><path class="cls-1" d="M845,88.25h-84v15h84c92.14,0,160.53,66.44,160.53,154.71S937.18,412.72,845,412.72H797v15h48c101.35,0,177-72.75,177-169.75S946.39,88.25,845,88.25Z"/><path class="cls-1" d="M1248.1,103.29v-15H1069.62v339.5H1248.1v-15H1085.62V258H1238.1V243H1085.62V103.29Z"/><path class="cls-1" d="M1405.05,246.36,1394.86,243c-43.16-14.07-71.29-33-71.29-73.72,0-41.23,30.07-70.81,73.72-70.81,21.25,0,45.85,6.25,74.79,26.41V106.22c-26.78-16.63-52.59-22.82-75.28-22.82-52.87,0-89.24,36.86-89.24,85.36,0,49,33,73.24,82,89.73l10.17,3.39c54.33,17.95,73.73,41.23,73.73,78.57,0,44.62-33.46,77.6-82.46,77.6-34,0-65.75-16.14-89.89-39v19.29c22.06,18,52.56,34.29,89.89,34.29,58.21,0,98.46-39.28,98.46-92.63C1489.43,295.83,1464.7,266.25,1405.05,246.36Z"/><path class="cls-1" d="M1570.42,88.25v339.5h16V88.25Z"/><path class="cls-1" d="M1821.45,257.52v15H1926.7V393.8c-27.15,15.52-59.65,23.77-93.6,23.77-89.24,0-158.59-70.33-158.59-159.57s69.84-159.56,159.08-159.56a181.19,181.19,0,0,1,90.49,24V105a198.41,198.41,0,0,0-90.49-21.62C1735.13,83.4,1658,160,1658,258s76.63,174.6,175.08,174.6c39.77,0,78.57-10.67,109.6-30.07v-145Z"/><path class="cls-1" d="M2283,88.25v303L2013.85,81.58V427.75h16v-304L2299,433.42V88.25Z"/></svg>