<svg id="Layer_1" data-name="Layer 1" xmlns="http://www.w3.org/2000/svg" viewBox="0 0 368 242"><title>EMdesign</title><path d="M113.57,126.37l-.38,8.5h39c1.8,0,3.78,2.4,3.46,4.2l-7.51,47.6c-.32,1.8-3.14,4.2-4.94,4.2H44.4a3.13,3.13,0,0,1-3-3.6l.47-172.8a4.86,4.86,0,0,1,4.24-3.6h128.8c1.8,0,3.77,2.4,3.46,4.2l-7.51,47.6c-.32,1.8-3.15,4.2-4.95,4.2h-51l-.38,8.5h49c1.8,0,3.78,2.4,3.46,4.2l-7.51,42.6c-.32,1.8-3.14,4.2-4.94,4.2Z"/><path d="M244.89,142l-18.82-26.73h-.9v72a3.87,3.87,0,0,1-3.6,3.6H160.36a3.87,3.87,0,0,1-3.6-3.6l31-172.8a3.87,3.87,0,0,1,3.6-3.6h22.4a6.86,6.86,0,0,1,5.71,3L245.89,60h0l23.58-46.13a6.85,6.85,0,0,1,5.7-3h45.4a3.87,3.87,0,0,1,3.6,3.6v172.8a3.87,3.87,0,0,1-3.6,3.6h-53.2a3.87,3.87,0,0,1-3.6-3.6v-72h-.6L244.89,142"/><path d="M44.06,230.64a.57.57,0,0,1-.52-.53V204.76a.57.57,0,0,1,.52-.53H55.51c8.67,0,14.83,5.15,14.83,13.2s-5.2,13.21-14.75,13.21Zm7.4-19.72v13h4.09c4.62,0,6.87-2.51,6.87-6.52s-2.82-6.51-6.91-6.51Z"/><path d="M106.28,220.43V224h14.44a.74.74,0,0,1,.61.61V230a.74.74,0,0,1-.61.62H98.89a.57.57,0,0,1-.53-.53V204.76a.57.57,0,0,1,.53-.53h21.65a.75.75,0,0,1,.62.62v5.46a.75.75,0,0,1-.62.61H106.28v3.26h12.94a.75.75,0,0,1,.62.61v5a.75.75,0,0,1-.62.62Z"/><path d="M155.08,221.75a1.09,1.09,0,0,1,1.1.75c.7,1.54,2,2.24,4.79,2.24,3.66,0,5-1,5-2.29,0-.7-.62-1.45-2.69-1.67l-6.56-.62c-5.36-.48-8.53-2.86-8.53-7.08,0-5.15,4.49-9.29,12.36-9.29,8.19,0,11.93,3.79,11.93,7.7a1,1,0,0,1-1,1h-6a.9.9,0,0,1-.92-.58c-.44-.92-1.67-1.8-4-1.8-2.86,0-4.44,1-4.44,2.2,0,.75.53,1.32,2.29,1.5l6.47.61c6.6.62,9,3.65,9,7.53,0,4.71-4.1,9.11-12.9,9.11-8.05,0-12.71-3.57-12.71-7.92v-.36a1.06,1.06,0,0,1,1.05-1.05Z"/><path d="M209.81,230.11a.57.57,0,0,1-.53.53h-6.86a.57.57,0,0,1-.53-.53V204.76a.57.57,0,0,1,.53-.53h6.86a.57.57,0,0,1,.53.53Z"/><path d="M267.41,218.31c0,6.87-5.41,12.77-14.21,12.77-9.42,0-15.36-6.21-15.36-13.65,0-7.78,6.33-13.64,15-13.64s13.73,5.55,13.73,9.42c0,.31-.22.57-.79.57h-6.16a1,1,0,0,1-.93-.48,6.55,6.55,0,0,0-5.85-2.82,7,7,0,0,0-7,7c0,4.14,3.12,7,7.44,7s5.85-1.89,6.16-3.13v0h-8.19a.74.74,0,0,1-.61-.62v-4.84a.74.74,0,0,1,.61-.61h16.24Z"/><path d="M306.17,219.42c-1.23-1.24-2.64-3-2.64-3h-.18v13.69a.57.57,0,0,1-.52.53H296a.58.58,0,0,1-.53-.53V204.76a.58.58,0,0,1,.53-.53h5.94l11.31,11.44a35.19,35.19,0,0,1,2.42,2.73h.13V204.76a.58.58,0,0,1,.53-.53h6.87a.57.57,0,0,1,.52.53v25.35a.57.57,0,0,1-.52.53h-5.94Z"/></svg>